<?xml version="1.0" encoding="UTF-8"?>
<!DOCTYPE svg PUBLIC "-//W3C//DTD SVG 1.1//EN" "http://www.w3.org/Graphics/SVG/1.1/DTD/svg11.dtd">
<!-- Creator: CorelDRAW 2018 (64 Bit) -->
<svg xmlns="http://www.w3.org/2000/svg" xml:space="preserve" width="30px" height="30px" version="1.1" style="shape-rendering:geometricPrecision; text-rendering:geometricPrecision; image-rendering:optimizeQuality; fill-rule:evenodd; clip-rule:evenodd"
viewBox="0 0 30 30"
 xmlns:xlink="http://www.w3.org/1999/xlink">
 <defs>
  <style type="text/css">
   <![CDATA[
    .fil0 {fill:black}
   ]]>
  </style>
 </defs>
 <g id="Camada_x0020_1">
  <metadata id="CorelCorpID_0Corel-Layer"/>
  <path class="fil0" d="M2.84 5.28c0.05,0.06 0.11,0.13 0.17,0.21 0.48,0.61 1.7,1.68 2.32,2.3l0.63 0.68c0.22,0.23 0.42,0.42 0.65,0.65 0.13,0.14 0.21,0.17 0.35,0.3l1 1.01c0.4,0.45 0.83,0.93 1.28,1.32 0.94,0.83 1.74,1.89 2.68,2.65 0.13,0.1 0.22,0.2 0.33,0.32 0.13,0.12 0.27,0.2 0.32,0.39 -0.11,0.16 -0.2,0.18 -0.34,0.31l-1.96 1.96c-0.13,0.14 -0.17,0.23 -0.32,0.37 -0.14,0.13 -0.22,0.16 -0.36,0.3 -0.12,0.13 -0.2,0.21 -0.32,0.33l-1.97 2c-0.44,0.33 -1.82,1.74 -2.28,2.29 -0.13,0.17 -0.22,0.19 -0.37,0.33 -0.45,0.41 -0.87,0.87 -1.3,1.3 -0.18,0.18 -0.36,0.35 -0.51,0.52l0 2.28 2.39 0c0.06,-0.05 0.11,-0.09 0.2,-0.16 0.12,-0.1 0.21,-0.21 0.32,-0.33l1.29 -1.33c0.22,-0.23 0.41,-0.43 0.65,-0.65l1.98 -1.98c0.65,-0.66 1.36,-1.26 1.98,-1.94l0.63 -0.67c0.57,-0.57 1.5,-1.33 1.97,-1.94 0.19,-0.24 0.45,-0.53 0.68,-0.69 0.44,0.3 0.91,0.94 1.29,1.32 0.45,0.45 0.88,0.83 1.33,1.28 0.45,0.45 0.83,0.88 1.28,1.33l3.97 3.92c0.54,0.54 1.02,1.14 1.6,1.65l0.21 0.19 2.55 0 0 -2.11c-0.2,-0.26 -0.44,-0.47 -0.62,-0.66 -0.96,-0.96 -9.01,-8.92 -9.25,-9.28 0.13,-0.2 0.45,-0.5 0.65,-0.65 0.59,-0.45 1.66,-1.69 2.3,-2.32 0.14,-0.14 0.21,-0.17 0.35,-0.3 0.76,-0.7 1.55,-1.72 2.28,-2.33l3.64 -3.59c0.25,-0.25 0.47,-0.47 0.65,-0.71l0 -2.1c-0.04,-0.05 -0.09,-0.1 -0.14,-0.15l-2.26 0c-0.18,0.16 -0.35,0.34 -0.51,0.5 -0.45,0.45 -0.88,0.87 -1.33,1.33 -0.14,0.13 -0.17,0.21 -0.3,0.35 -0.13,0.14 -0.22,0.17 -0.35,0.3 -0.4,0.36 -1.72,1.65 -2,2.02 -0.22,0.28 -0.42,0.4 -0.66,0.64 -0.62,0.63 -1.7,1.78 -2.34,2.33 -0.11,0.11 -0.21,0.22 -0.32,0.33 -0.51,0.51 -1.21,1.12 -1.66,1.66l-0.31 0.39c-0.31,-0.21 -1.03,-1 -1.34,-1.32l-7.99 -7.98c-0.16,-0.17 -0.35,-0.37 -0.56,-0.55l-2.25 0 0 0 0 2.38z"/>
 </g>
</svg>
